<?xml version="1.0" encoding="utf-8"?>
<!-- Generator: Adobe Illustrator 26.5.0, SVG Export Plug-In . SVG Version: 6.00 Build 0)  -->
<svg version="1.1" id="Layer_1" xmlns="http://www.w3.org/2000/svg" xmlns:xlink="http://www.w3.org/1999/xlink" x="0px" y="0px"
	 viewBox="0 0 19.1 24" style="enable-background:new 0 0 19.1 24;" xml:space="preserve">
<style type="text/css">
	.st0{filter:url(#filter-1);}
	.st1{fill-rule:evenodd;clip-rule:evenodd;}
</style>
<filter  filterUnits="objectBoundingBox" height="200%" id="filter-1" width="200%" x="-50%" y="-50%">
	<feOffset  dx="0" dy="2" in="SourceAlpha" result="shadowOffsetOuter1"></feOffset>
	<feGaussianBlur  in="shadowOffsetOuter1" result="shadowBlurOuter1" stdDeviation="2"></feGaussianBlur>
	
		<feColorMatrix  in="shadowBlurOuter1" result="shadowMatrixOuter1" type="matrix" values="0 0 0 0 0   0 0 0 0 0   0 0 0 0 0  0 0 0 0.05 0">
		</feColorMatrix>
	<feMerge>
		<feMergeNode  in="shadowMatrixOuter1"></feMergeNode>
		<feMergeNode  in="SourceGraphic"></feMergeNode>
	</feMerge>
</filter>
<g id="OPt-2">
	<g id="prog2_pro3_Mobile-Portrait_opt2-Copy-2" transform="translate(-10.000000, -15.000000)">
		<g id="nav">
			<g id="Group-6" class="st0">
				<g id="ic_home_00000180363224289845274830000016588108520024629907_" transform="translate(14.000000, 17.000000)">
					
						<g id="Group_00000167372050363408634770000008933129836714375356_" transform="translate(9.600000, 12.000000) scale(-1, 1) translate(-9.600000, -12.000000) ">
						<path id="Shape_00000157282230076351290320000001131398236760660113_" class="st1" d="M5.4,5.8l0.9,0.7l1.4,1.1
							c0.2-1,0.8-1.8,1.5-2.3L6.5,3.1l0.9-1.1c0.4-0.5,0.3-1.1-0.2-1.5L5,3.2C4.7,3.6,4.6,4.1,4.7,4.6C4.8,5,5,5.5,5.4,5.8L5.4,5.8z
							"/>
						<path id="Shape_00000116237788580979155700000000499185289826102197_" class="st1" d="M14.1,15.4c-3.1-1.6-5.8-2.1-6.5-1
							C7,15.4,8,17.1,9.9,18.9l-1.8,2.9H6.9c-0.6,0-1,0.5-1,1.1h1.6h2.1l0.7-1.1l1-1.7l0.4-0.7c-0.1-0.2-0.2-0.5-0.2-0.8
							c0-0.9,0.7-1.6,1.6-1.6c0,0,0.1,0,0.1,0L14.1,15.4L14.1,15.4z"/>
						<path id="Shape_00000022538377559005257450000015824595126355297452_" class="st1" d="M22.8,5.3C22.6,4.6,21.9,4,21.1,4
							c-0.2,0-0.5,0-0.7,0.1c-0.6,0.3-1,0.9-1,1.6v8.2c0,0.6-0.5,1.1-1,1.1c-0.4,0-0.8-0.3-0.9-0.6c0,0,0-0.1,0-0.1l-1-2.4l1.9-6.5
							c0,0,0,0,0,0c0-0.1,0-0.1,0.1-0.2C19,2.6,17.8,0,15.5-1.1l-4.4,1.6c-0.5,0.2-0.8,0.8-0.7,1.3l1.1-0.4c0.4-0.2,0.9,0.1,1.1,0.5
							c0.2,0.5-0.1,0.9-0.5,1.1l-1.2,0.4c0.2,0.5,0.8,0.8,1.3,0.6l1.2-0.5c0.1,0.5-0.2,1-0.7,1.2l-2.3,0.9c-1,0.4-1.7,1.4-1.7,2.6
							c0,0,0,0.1,0,0.1c0,0,0,0.1,0,0.1c0,0,0,0,0,0H5.1V7c0-0.4-0.5-0.7-0.8-0.9L4,5.9v3.5c0,1,0.8,1.8,1.8,1.8h4.1
							c0.4,0,0.7,0,1.1,0.1c0,0,0,0,0,0c0,0,0,0,0.1,0c0,0,0,0,0,0c1.8,0.5,3.2,2.1,3.4,4c0,0,0,0.1,0,0.1c0,0.1,0,0.2,0,0.3
							c0,1.1-0.4,2.1-1,2.9c0,0.1-0.1,0.1-0.1,0.2c-0.1,0.2-0.2,0.4-0.2,0.7c0,0.6,0.5,1.2,1.1,1.2c0.2,0,0.4-0.1,0.6-0.2l2.3-1.4
							c0.3,0.2,0.5,0.5,0.5,0.9c0,0.3-0.1,0.5-0.3,0.7l-1,1.1h-1.2h0h-0.1c-0.6,0-1,0.5-1,1.1h2.1h0h1.3c0-1,0.8-1.8,1.8-1.8V18
							c-0.8-0.2-1.4-0.9-1.4-1.8c0,0,0-0.1,0-0.1c0.1,0,0.2,0,0.3,0c0.4,0,0.8-0.1,1.1-0.3c0.6-0.4,1-1.1,1-1.9V5.7
							c0-0.4,0.3-0.7,0.7-0.7c0.4,0,0.7,0.3,0.7,0.7C21.4,6,21,6.5,21,7.2c0,1,0.8,1.8,1.8,1.8V5.7C22.8,5.6,22.8,5.5,22.8,5.3
							L22.8,5.3z"/>
					</g>
				</g>
			</g>
		</g>
	</g>
</g>
</svg>
